<svg xmlns="http://www.w3.org/2000/svg" viewBox="0 0 64 64" fill="none">
  <!-- Coração principal -->
  <path d="M32 56 C32 56 6 40 6 22 C6 12 14 6 22 6 C27 6 31 9 32 12 C33 9 37 6 42 6 C50 6 58 12 58 22 C58 40 32 56 32 56Z" fill="#ff69b4" stroke="#e91e8a" stroke-width="1.5"/>
  <!-- Patinha de gato no centro do coração -->
  <ellipse cx="32" cy="30" rx="5" ry="4.5" fill="#fff5f5"/>
  <ellipse cx="26" cy="25" rx="2.5" ry="2.5" fill="#fff5f5"/>
  <ellipse cx="38" cy="25" rx="2.5" ry="2.5" fill="#fff5f5"/>
  <ellipse cx="29" cy="21" rx="2" ry="2" fill="#fff5f5"/>
  <ellipse cx="35" cy="21" rx="2" ry="2" fill="#fff5f5"/>
  <!-- Mini controle de game embaixo -->
  <rect x="22" y="42" rx="3" ry="3" width="20" height="10" fill="#fff" stroke="#e91e8a" stroke-width="1"/>
  <rect x="26" y="45" width="4" height="1.5" rx="0.5" fill="#ff69b4"/>
  <circle cx="37" cy="45.5" r="1.2" fill="#ff69b4"/>
  <circle cx="39.5" cy="47.5" r="1.2" fill="#ff69b4"/>
</svg>
